<svg width="739" height="271" viewBox="0 0 739 271" fill="none" xmlns="http://www.w3.org/2000/svg">
<path d="M69.9 167.14C105.202 167.14 133.82 145.9 133.82 119.7C133.82 93.4996 105.202 72.26 69.9 72.26C34.5979 72.26 5.97998 93.4996 5.97998 119.7C5.97998 145.9 34.5979 167.14 69.9 167.14Z" stroke="#E6E1E8" stroke-width="10" stroke-miterlimit="10"/>
<path d="M128.17 143.24C131.4 148.07 134.04 154.24 134.04 159.82C134.04 165.4 132.25 170.72 129.02 175.55C125.79 180.38 121.11 184.74 115.32 188.4C109.54 192.06 102.65 195.02 95 197.06C87.35 199.1 78.9499 200.24 70.1199 200.24C61.2899 200.24 52.89 199.11 45.24 197.06C37.59 195.02 30.71 192.06 24.92 188.4C19.13 184.74 14.46 180.39 11.22 175.55C7.97996 170.71 6.19995 165.4 6.19995 159.82C6.19995 154.24 7.98996 148.08 11.22 143.24" stroke="#E6E1E8" stroke-width="10" stroke-miterlimit="10"/>
<path d="M96.86 115.24H43.14V124.33H96.86V115.24Z" fill="#E6E1E8"/>
<path d="M43.27 121H29.83V130.19H43.27V121Z" fill="#E6E1E8"/>
<path d="M29.8399 127.04H18.5399V136.16H29.8399V127.04Z" fill="#E6E1E8"/>
<path d="M18.53 133.7H10.53V141.65H18.53V133.7Z" fill="#E6E1E8"/>
<path d="M110.2 121.06H96.76V130.25H110.2V121.06Z" fill="#E6E1E8"/>
<path d="M121.19 127.09H110.06V136.21H121.19V127.09Z" fill="#E6E1E8"/>
<path d="M129.39 133.75H121.18V141.7H129.39V133.75Z" fill="#E6E1E8"/>
<path d="M174.4 104.68H201.47C205.5 104.68 209.05 105.38 212.13 106.78C215.2 108.18 217.59 110.14 219.28 112.66C220.98 115.18 221.82 118.06 221.82 121.31C221.82 125.13 220.62 128.27 218.22 130.72C215.82 133.17 212.47 134.62 208.19 135.07V135.26C214.01 135.45 218.56 137.06 221.82 140.09C225.08 143.12 226.72 147.05 226.72 151.89C226.72 155.65 225.78 159.01 223.89 161.97C222 164.93 219.28 167.27 215.73 168.99C212.18 170.71 208.06 171.57 203.39 171.57H174.39V104.68H174.4ZM207.09 131.11C208.91 130.31 210.29 129.17 211.22 127.67C212.15 126.17 212.61 124.44 212.61 122.46C212.61 119.47 211.57 117.08 209.49 115.29C207.41 113.51 204.39 112.61 200.42 112.61H183.33V132.3H200.42C203.04 132.3 205.27 131.9 207.09 131.11ZM210.69 162.21C212.93 161.25 214.61 159.9 215.73 158.15C216.85 156.4 217.41 154.31 217.41 151.89C217.41 148.26 216.13 145.41 213.57 143.34C211.01 141.27 207.26 140.23 202.34 140.23H183.33V163.64H202.34C205.67 163.64 208.45 163.16 210.69 162.21Z" fill="#E6E1E8"/>
<path d="M237.19 119.02H245.64V128.19H245.83C247.24 125.07 248.92 122.76 250.87 121.26C252.82 119.76 255.75 119.01 259.66 119.01H264.75V126.66H258.51C254.16 126.66 250.96 127.93 248.91 130.48C246.86 133.03 245.84 136.85 245.84 141.95V171.57H237.2V119.01L237.19 119.02Z" fill="#E6E1E8"/>
<path d="M271.75 119.02H280.39V171.58H271.75V119.02Z" fill="#E6E1E8"/>
<path d="M294.79 96.9399H303.43V171.57H294.79V96.9399Z" fill="#E6E1E8"/>
<path d="M317.83 96.9399H326.47V171.57H317.83V96.9399Z" fill="#E6E1E8"/>
<path d="M340.68 119.02H349.32V171.58H340.68V119.02Z" fill="#E6E1E8"/>
<path d="M388.35 169.91C385.12 171.98 381.36 173.02 377.07 173.02C373.68 173.02 370.6 172.38 367.85 171.11C365.1 169.84 362.94 167.94 361.37 165.42C359.8 162.9 359.02 159.89 359.02 156.39C359.02 150.85 360.92 146.72 364.73 144.01C368.54 141.3 373.32 139.95 379.08 139.95H387.43C390.05 139.95 392.04 139.41 393.38 138.33C394.72 137.25 395.4 135.69 395.4 133.65C395.4 130.91 394.28 128.79 392.04 127.3C389.8 125.8 386.95 125.05 383.5 125.05C379.53 125.05 376.3 126.01 373.8 127.92C371.3 129.83 369.93 132.54 369.67 136.04H361.03C361.41 130.31 363.51 125.8 367.32 122.52C371.13 119.24 376.52 117.6 383.5 117.6C388.24 117.6 392.12 118.35 395.16 119.85C398.2 121.35 400.44 123.43 401.88 126.11C403.32 128.79 404.04 131.91 404.04 135.47V160.6C404.04 161.81 404.29 162.67 404.81 163.18C405.32 163.69 406.19 163.94 407.4 163.94H409.8V171.58H404.14C401.58 171.58 399.56 170.88 398.09 169.48C396.62 168.08 395.88 166.17 395.88 163.75V160.69H395.69C394.02 164.77 391.58 167.84 388.34 169.91H388.35ZM387.01 163.55C389.54 162.21 391.57 160.19 393.11 157.48C394.65 154.77 395.41 151.44 395.41 147.49V141.57H395.22C394.26 143.55 392.87 145 391.04 145.92C389.22 146.84 386.73 147.31 383.6 147.31H379.28C375.44 147.31 372.61 148.17 370.78 149.89C368.96 151.61 368.04 153.78 368.04 156.39C368.04 159 368.92 161.26 370.68 162.98C372.44 164.7 375.11 165.56 378.7 165.56C381.71 165.56 384.48 164.89 387 163.55H387.01Z" fill="#E6E1E8"/>
<path d="M418.65 119.02H427.1V128.86H427.29C428.89 125.29 431.19 122.52 434.2 120.55C437.21 118.58 440.73 117.59 444.76 117.59C448.47 117.59 451.67 118.45 454.36 120.17C457.05 121.89 459.1 124.44 460.5 127.81C461.91 131.19 462.61 135.26 462.61 140.04V171.58H453.97V140.9C453.97 135.49 452.91 131.52 450.8 129C448.69 126.48 445.77 125.23 442.06 125.23C439.43 125.23 437 125.87 434.76 127.14C432.52 128.42 430.71 130.39 429.34 133.06C427.96 135.74 427.28 139.08 427.28 143.09V171.57H418.64V119.01L418.65 119.02Z" fill="#E6E1E8"/>
<path d="M468.28 119.02H504.19V126.67H468.28V119.02ZM482.4 168.09C480.03 165.77 478.85 162.31 478.85 157.72V104.68H487.49V157.72C487.49 159.89 488.02 161.46 489.07 162.45C490.13 163.44 491.71 163.93 493.82 163.93H504.67V171.57H492.86C488.25 171.57 484.76 170.41 482.4 168.08V168.09Z" fill="#E6E1E8"/>
<path d="M576.2 163.65V171.58H536.55V104.69H545.48V163.65H576.2Z" fill="#E6E1E8"/>
<path d="M609.66 169.91C606.43 171.98 602.67 173.02 598.38 173.02C594.99 173.02 591.91 172.38 589.16 171.11C586.41 169.84 584.25 167.94 582.68 165.42C581.11 162.9 580.33 159.89 580.33 156.39C580.33 150.85 582.23 146.72 586.04 144.01C589.85 141.3 594.63 139.95 600.39 139.95H608.74C611.36 139.95 613.35 139.41 614.69 138.33C616.03 137.25 616.71 135.69 616.71 133.65C616.71 130.91 615.59 128.79 613.35 127.3C611.11 125.8 608.26 125.05 604.81 125.05C600.84 125.05 597.61 126.01 595.11 127.92C592.61 129.83 591.24 132.54 590.98 136.04H582.34C582.72 130.31 584.82 125.8 588.63 122.52C592.44 119.24 597.83 117.6 604.81 117.6C609.55 117.6 613.43 118.35 616.48 119.85C619.52 121.35 621.76 123.43 623.2 126.11C624.64 128.79 625.36 131.91 625.36 135.47V160.6C625.36 161.81 625.61 162.67 626.13 163.18C626.64 163.69 627.51 163.94 628.72 163.94H631.12V171.58H625.46C622.9 171.58 620.88 170.88 619.41 169.48C617.94 168.08 617.2 166.17 617.2 163.75V160.69H617.01C615.34 164.77 612.9 167.84 609.67 169.91H609.66ZM608.31 163.55C610.84 162.21 612.87 160.19 614.41 157.48C615.95 154.77 616.71 151.44 616.71 147.49V141.57H616.52C615.56 143.55 614.17 145 612.34 145.92C610.52 146.84 608.03 147.31 604.9 147.31H600.58C596.74 147.31 593.91 148.17 592.08 149.89C590.26 151.61 589.34 153.78 589.34 156.39C589.34 159 590.22 161.26 591.98 162.98C593.74 164.7 596.41 165.56 600 165.56C603.01 165.56 605.78 164.89 608.31 163.55Z" fill="#E6E1E8"/>
<path d="M655.64 169.63C652.32 167.38 649.91 164.32 648.4 160.45H648.22C648.28 161.78 648.31 163.69 648.31 166.16V171.58H640.25V104.26H648.4V124.67C648.4 127.14 648.34 129.05 648.22 130.38H648.4C649.91 126.51 652.32 123.45 655.64 121.2C658.96 118.95 662.73 117.82 666.96 117.82C671.19 117.82 674.8 118.9 678.37 121.06C681.93 123.22 684.8 126.37 686.97 130.53C689.14 134.69 690.23 139.65 690.23 145.42C690.23 151.19 689.14 156.16 686.97 160.31C684.8 164.47 681.93 167.62 678.37 169.78C674.81 171.94 671.01 173.02 666.96 173.02C662.91 173.02 658.96 171.89 655.64 169.64V169.63ZM673.66 163.07C676.19 161.39 678.17 159.01 679.59 155.93C681.01 152.85 681.72 149.35 681.72 145.41C681.72 141.47 681.01 137.97 679.59 134.89C678.17 131.81 676.2 129.43 673.66 127.75C671.13 126.07 668.23 125.23 664.97 125.23C661.71 125.23 658.81 126.07 656.28 127.75C653.75 129.43 651.78 131.81 650.4 134.89C649.01 137.97 648.32 141.47 648.32 145.41C648.32 149.35 649.01 152.85 650.4 155.93C651.79 159.01 653.75 161.39 656.28 163.07C658.81 164.75 661.71 165.59 664.97 165.59C668.23 165.59 671.13 164.75 673.66 163.07Z" fill="#E6E1E8"/>
<path d="M705.75 170.72C702.55 169.19 700.05 167.01 698.26 164.17C696.47 161.34 695.48 158.01 695.28 154.18H704.31C704.5 158 705.73 160.85 708.01 162.73C710.28 164.61 713.31 165.55 717.08 165.55C719.51 165.55 721.64 165.17 723.46 164.4C725.28 163.63 726.69 162.54 727.68 161.1C728.67 159.67 729.17 157.99 729.17 156.08C729.17 153.66 728.34 151.8 726.67 150.49C725 149.19 722.45 148.53 718.99 148.53H713.33C708.02 148.53 703.84 147.21 700.8 144.56C697.76 141.92 696.24 138.4 696.24 134C696.24 130.88 697.04 128.08 698.64 125.59C700.24 123.11 702.56 121.15 705.6 119.71C708.64 118.28 712.24 117.56 716.4 117.56C720.56 117.56 724.37 118.32 727.44 119.85C730.51 121.38 732.86 123.53 734.5 126.3C736.13 129.07 737.04 132.31 737.24 136H728.22C728.03 132.5 726.94 129.79 724.96 127.88C722.97 125.97 720.13 125.01 716.42 125.01C713.03 125.01 710.32 125.79 708.31 127.35C706.29 128.91 705.29 131 705.29 133.61C705.29 135.9 706.06 137.62 707.59 138.77C709.13 139.92 711.27 140.49 714.02 140.49H720.26C726.02 140.49 730.45 141.92 733.56 144.79C736.66 147.66 738.22 151.35 738.22 155.88C738.22 159.19 737.36 162.14 735.63 164.72C733.9 167.3 731.45 169.32 728.29 170.79C725.12 172.25 721.39 172.99 717.1 172.99C712.81 172.99 708.97 172.23 705.77 170.7L705.75 170.72Z" fill="#E6E1E8"/>
</svg>
