<svg width="304" height="35" viewBox="0 0 304 35" fill="none" xmlns="http://www.w3.org/2000/svg">
<g clip-path="url(#clip0_720_14707)">
<path d="M0 24.61L12.87 15.5599V15.4L0 6.34995V4.94995L14.12 14.86V16.11L0 26.02V24.61Z" fill="#E82E87"/>
<path d="M26.6599 2.89014H34.2499C39.4899 2.89014 43.1599 4.56014 43.1599 9.14014C43.1599 11.6101 41.7399 13.9201 38.7099 14.6901V14.8501C42.4199 15.4601 44.5399 17.4601 44.5399 20.9401C44.5399 26.0101 40.5499 28.4301 34.8699 28.4301H26.6599V2.89014ZM33.7799 13.5101C37.7399 13.5101 39.3399 12.1601 39.3399 9.56012C39.3399 7.02012 37.5199 6.08014 33.8999 6.08014H30.5399V13.5201H33.7799V13.5101ZM34.3999 25.2501C38.4499 25.2501 40.7099 23.8901 40.7099 20.7101C40.7099 17.7901 38.5399 16.6001 34.3999 16.6001H30.5399V25.2501H34.3999Z" fill="#121212"/>
<path d="M47.9099 9.3699H51.1299L51.4799 13.7899H51.5699C53.5399 10.6899 56.4699 8.8999 59.8699 8.8999C61.3499 8.8999 62.4499 9.1199 63.6099 9.6799L62.7599 12.9799C61.4599 12.5699 60.7399 12.3699 59.2699 12.3699C56.5399 12.3699 53.9099 13.7599 51.7999 17.6099V28.4199H47.9099V9.3699Z" fill="#121212"/>
<path d="M73.97 12.4701H65.45V9.37012H77.86V28.4301H73.9799V12.4701H73.97ZM72.7 2.8801C72.7 1.2401 73.92 0.110107 75.59 0.110107C77.26 0.110107 78.4799 1.2401 78.4799 2.8801C78.4799 4.5501 77.26 5.64011 75.59 5.64011C73.93 5.64011 72.7 4.5601 72.7 2.8801Z" fill="#121212"/>
<path d="M90.7399 21.76V3.88004H84.1899V0.780029H94.6199V22C94.6199 24.64 96.1199 25.7101 98.2099 25.7101C99.2499 25.7101 100.36 25.46 101.62 24.91L102.56 27.79C100.74 28.51 99.4599 28.9001 97.3099 28.9001C93.0499 28.9001 90.7399 26.35 90.7399 21.76Z" fill="#121212"/>
<path d="M110.24 21.76V3.88004H103.69V0.780029H114.12V22C114.12 24.64 115.62 25.7101 117.71 25.7101C118.75 25.7101 119.86 25.46 121.12 24.91L122.06 27.79C120.24 28.51 118.96 28.9001 116.81 28.9001C112.55 28.9001 110.24 26.35 110.24 21.76Z" fill="#121212"/>
<path d="M132.47 12.4701H123.95V9.37012H136.36V28.4301H132.48V12.4701H132.47ZM131.21 2.8801C131.21 1.2401 132.43 0.110107 134.1 0.110107C135.77 0.110107 136.99 1.2401 136.99 2.8801C136.99 4.5501 135.77 5.64011 134.1 5.64011C132.43 5.64011 131.21 4.5601 131.21 2.8801Z" fill="#121212"/>
<path d="M142.99 23.3999C142.99 19.1299 146.87 17.0199 156.49 16.2999C156.35 13.9399 155.09 12.0499 151.7 12.0499C149.4 12.0499 147.12 13.0999 145.26 14.1999L143.78 11.6099C145.92 10.2899 149.09 8.90991 152.4 8.90991C157.65 8.90991 160.38 11.9299 160.38 16.9599V28.4399H157.17L156.86 25.9699H156.74C154.7 27.5599 152.05 28.9099 149.44 28.9099C145.79 28.8999 142.99 26.7599 142.99 23.3999ZM156.49 23.2499V18.7899C149 19.3299 146.79 20.8299 146.79 23.1099C146.79 25.0199 148.51 25.8199 150.55 25.8199C152.58 25.8099 154.52 24.8599 156.49 23.2499Z" fill="#121212"/>
<path d="M162.98 9.3699H166.16L166.47 12.4099H166.63C168.54 10.4499 170.71 8.8999 173.65 8.8999C178.11 8.8999 180.14 11.6399 180.14 16.5999V28.4199H176.25V17.1099C176.25 13.7799 175.13 12.2499 172.31 12.2499C170.24 12.2499 168.84 13.2699 166.87 15.2899V28.4299H162.99V9.3699H162.98Z" fill="#121212"/>
<path d="M186.78 20.8901V12.4701H181.53V9.57007L186.93 9.37009L187.44 3.33008H190.66V9.37009H199.65V12.4701H190.66V20.9001C190.66 24.1801 191.82 25.7601 195.27 25.7601C196.94 25.7601 198.31 25.4201 199.61 24.9501L200.4 27.7901C198.68 28.3901 196.8 28.9001 194.37 28.9001C188.67 28.9001 186.78 25.6701 186.78 20.8901Z" fill="#121212"/>
<path d="M207.53 17.59C207.53 9.91003 211 3.98 216.7 0L217.36 0.900024C211.63 5.19002 208.86 10.73 208.86 17.59C208.86 24.45 211.63 29.99 217.36 34.28L216.7 35.18C211 31.2 207.53 25.27 207.53 17.59Z" fill="#E82E87"/>
<path d="M221.15 2.68994H222.32V27.34H236.05V28.43H221.15V2.68994Z" fill="#E82E87"/>
<path d="M238.31 23.8701C238.31 19.7001 242.6 17.7501 252.9 16.8101C252.9 13.5301 251.65 10.4101 247.13 10.4101C244.17 10.4101 241.32 11.9701 239.88 13.0601L239.26 12.1201C240.59 11.1101 243.86 9.31006 247.22 9.31006C252.17 9.31006 254.08 12.5901 254.08 16.3301V28.4201H253.07L252.91 25.5301H252.83C250.65 27.2801 247.68 28.8801 244.87 28.8801C241.59 28.9001 238.31 27.4201 238.31 23.8701ZM252.9 24.2201V17.8201C242.84 18.7601 239.56 20.6301 239.56 23.8301C239.56 26.7201 242.29 27.8101 244.94 27.8101C247.44 27.8101 250.09 26.6001 252.9 24.2201Z" fill="#E82E87"/>
<path d="M259.6 26.32H259.52L259.36 28.43H258.35V0.27002H259.52V8.62003L259.44 12.75H259.52C261.47 10.72 264.28 9.32001 266.77 9.32001C272.11 9.32001 274.73 13.06 274.73 18.84C274.73 25.16 270.63 28.9 265.99 28.9C264.09 28.9 261.52 27.88 259.6 26.32ZM273.49 18.84C273.49 14.08 271.58 10.42 266.7 10.42C264.63 10.42 262.02 11.59 259.52 14.09V24.85C261.86 26.99 264.47 27.81 266.07 27.81C270.37 27.81 273.49 24.06 273.49 18.84Z" fill="#E82E87"/>
<path d="M276.92 25.9301L277.62 24.9901C279.65 26.6301 282.11 27.8001 286.2 27.8001C290.26 27.8001 292.36 25.9301 292.36 23.8201C292.36 22.0301 291.74 20.5401 285.5 19.3001C280.82 18.3601 278.01 16.8801 278.01 14.1501C278.01 11.5801 280.15 9.31006 285.11 9.31006C287.49 9.31006 290.38 10.2501 292.13 11.5701L291.43 12.5101C289.79 11.2601 287.65 10.4001 285.03 10.4001C280.62 10.4001 279.26 12.1901 279.26 14.0701C279.26 16.1801 281.29 17.2701 285.66 18.1601C292.21 19.5301 293.62 21.0101 293.62 23.7401C293.62 26.4701 290.89 28.8901 286.13 28.8901C282.23 28.9001 279.11 27.4901 276.92 25.9301Z" fill="#E82E87"/>
<path d="M294.67 34.28C300.4 29.99 303.17 24.45 303.17 17.59C303.17 10.73 300.4 5.19002 294.67 0.900024L295.33 0C301.02 3.98 304.5 9.91003 304.5 17.59C304.5 25.27 301.03 31.2 295.33 35.18L294.67 34.28Z" fill="#E82E87"/>
</g>
<defs>
<clipPath id="clip0_720_14707">
<rect width="304" height="35" fill="white"/>
</clipPath>
</defs>
</svg>
